<svg xmlns="http://www.w3.org/2000/svg" viewBox="0 0 75.93 75.93"><defs><style>.cls-1{fill:#fff;}</style></defs><title>Fichier 3</title><g id="Calque_2" data-name="Calque 2"><g id="_05-FULL-WHITE" data-name="05-FULL-WHITE"><g id="Instagram"><path class="cls-1" d="M31.92,37.91a7.05,7.05,0,1,1,7,7A7,7,0,0,1,31.92,37.91Z"/><rect class="cls-1" x="46.44" y="23.87" width="6" height="6" rx="1.15" ry="1.15"/><path class="cls-1" d="M49.23,34.87h4.21V51.61c0,.64-.14,1.26-.77,1.26H25.17c-.63,0-.73-.62-.73-1.26V34.87h4.17c-.6,0-.8,2.24-.8,3.26a11.16,11.16,0,0,0,22.31.06C50.12,37.16,50,34.87,49.23,34.87Z"/><path class="cls-1" d="M38,0a38,38,0,1,0,38,38A38,38,0,0,0,38,0ZM57.44,51.85c0,2.4-2.14,4-4.54,4H25c-2.41,0-4.51-1.62-4.51-4v-28c0-2.4,2.1-4,4.51-4h28c2.4,0,4.54,1.61,4.54,4Z"/></g></g></g></svg>