<svg xmlns="http://www.w3.org/2000/svg" viewBox="0 0 75.93 75.93"><defs><style>.cls-1{fill:#fff;}</style></defs><title>Fichier 2</title><g id="Calque_2" data-name="Calque 2"><g id="_05-FULL-WHITE" data-name="05-FULL-WHITE"><g id="Twitter"><path class="cls-1" d="M38,0a38,38,0,1,0,38,38A38,38,0,0,0,38,0ZM52.4,29.92c0,.34,0,.68,0,1,0,10.41-7.73,22.42-21.86,22.42a21.41,21.41,0,0,1-11.78-3.54,15.79,15.79,0,0,0,1.83.11,15.21,15.21,0,0,0,9.55-3.37A7.72,7.72,0,0,1,23,41.09a7.64,7.64,0,0,0,1.44.14,8.08,8.08,0,0,0,2.11-.28,7.77,7.77,0,0,1-6.09-7.73v-.09a7.21,7.21,0,0,0,3.41,1,8,8,0,0,1-2.44-10.52,21.61,21.61,0,0,0,15.83,8.23A7.62,7.62,0,0,1,37,30a7.78,7.78,0,0,1,7.68-7.88,7.58,7.58,0,0,1,5.61,2.48,15,15,0,0,0,4.88-1.91,7.83,7.83,0,0,1-3.38,4.36,14.81,14.81,0,0,0,4.41-1.24A15.67,15.67,0,0,1,52.4,29.92Z"/></g></g></g></svg>