<svg xmlns="http://www.w3.org/2000/svg" viewBox="0 0 75.93 75.93"><defs><style>.cls-1{fill:#fff;}</style></defs><title>Fichier 1</title><g id="Calque_2" data-name="Calque 2"><g id="_05-FULL-WHITE" data-name="05-FULL-WHITE"><g id="Facebook"><path class="cls-1" d="M38,0a38,38,0,1,0,38,38A38,38,0,0,0,38,0ZM56.44,54c0,1.12-.55,2.31-1.66,2.31H45.44v-14h4.75l.72-6H45.44V32.75c0-1.6.43-2.42,2.73-2.42h3.27V25.1c-1-.07-2.55-.22-4.58-.22-4.22,0-7.42,2.58-7.42,7.32v4.13h-5v6h5v14H22.12c-1.12,0-1.68-1.19-1.68-2.31V21.36c0-1.12.56-2,1.68-2H54.78c1.11,0,1.66.91,1.66,2Z"/></g></g></g></svg>