<svg xmlns="http://www.w3.org/2000/svg" viewBox="0 0 425 425"><defs><style>.cls-1{fill:#212121;}.cls-2{fill:#fff;}</style></defs><title>logo3</title><g id="Calque_2" data-name="Calque 2"><g id="Calque_1-2" data-name="Calque 1"><circle class="cls-1" cx="212.5" cy="212.5" r="212.5"/><g id="Calque_2-2" data-name="Calque 2"><g id="Calque_1-2-2" data-name="Calque 1-2"><path class="cls-2" d="M293.13,250.85c-3.05,3.32-6,6.73-9.18,9.94-1.51,1.53-1.71,2.78-.79,4.75q16.51,35.26,32.88,70.59c1.25,2.68,2.66,5.27,4,7.88s3.76,4,6.43,5,5.58,1.93,8.4,2.85c2,.67,2.58.38,3.41-1.66,1.88-4.63,3.72-9.28,5.67-13.88a7.31,7.31,0,0,0-.25-6.28c-10.45-22.3-21-44.58-31.34-66.92Q285.69,205.58,259.13,148q-14.25-30.74-28.65-61.4a29.29,29.29,0,0,0-14.74-14.81,7.44,7.44,0,0,0-8,.91,37.48,37.48,0,0,0-11.88,15q-16.62,35.61-33.2,71.23-23.12,49.82-46.15,99.66c-11.54,25-23,50-34.51,75-4.11,8.87.08,17.15,9.72,19.93,4.06,1.17,7.63-.36,10.72-3q11.82-10,23.56-20.09,43.47-37.23,86.91-74.47a25.57,25.57,0,0,1,4.9-3.7,14.81,14.81,0,0,1,6.12-1.77c13.28-.19,26.57-.14,39.86-.2q13.32-.05,26.64-.14h2.46Zm-30-28.67a7.73,7.73,0,0,1-1.23.22c-10.44-.14-20.89-.41-31.33-.4a83.38,83.38,0,0,0-13.85,1c-8.73,1.49-15.87,6.19-22.22,12.18a459.54,459.54,0,0,1-56,45.22,18.36,18.36,0,0,1-1.69,1l-.29-.34,76.7-166.43.53.08Z"/></g></g></g></g></svg>